<svg version="1.1" viewBox="0.0 0.0 600.0 371.0" fill="none" stroke="none" stroke-linecap="square" stroke-miterlimit="10" width="600" height="371" xmlns:xlink="http://www.w3.org/1999/xlink" xmlns="http://www.w3.org/2000/svg"><path fill="#ffffff" d="M0 0L600.0 0L600.0 371.0L0 371.0L0 0Z" fill-rule="nonzero"/><path stroke="#333333" stroke-width="1.0" stroke-linecap="butt" d="M77.5 18.5L77.5 332.5" fill-rule="nonzero"/><path stroke="#cccccc" stroke-width="1.0" stroke-linecap="butt" d="M178.5 18.5L178.5 332.5" fill-rule="nonzero"/><path stroke="#cccccc" stroke-width="1.0" stroke-linecap="butt" d="M279.5 18.5L279.5 332.5" fill-rule="nonzero"/><path stroke="#cccccc" stroke-width="1.0" stroke-linecap="butt" d="M379.5 18.5L379.5 332.5" fill-rule="nonzero"/><path stroke="#cccccc" stroke-width="1.0" stroke-linecap="butt" d="M480.5 18.5L480.5 332.5" fill-rule="nonzero"/><path stroke="#cccccc" stroke-width="1.0" stroke-linecap="butt" d="M581.5 18.5L581.5 332.5" fill-rule="nonzero"/><clipPath id="id_0"><path d="M77.55 18.55L581.45 18.55L581.45 332.45L77.55 332.45L77.55 18.55Z" clip-rule="nonzero"/></clipPath><path stroke="#000000" stroke-width="0.0" stroke-linecap="butt" stroke-opacity="0.0" clip-path="url(#id_0)" d="M78.0 153.0L78.0 66.0L425.0 66.0C426.10458 66.0 427.0 66.89543 427.0 68.0L427.0 151.0C427.0 152.10457 426.10458 153.0 425.0 153.0Z" fill-rule="nonzero"/><path fill="#4285f4" clip-path="url(#id_0)" d="M78.0 153.0L78.0 66.0L425.0 66.0C426.10458 66.0 427.0 66.89543 427.0 68.0L427.0 151.0C427.0 152.10457 426.10458 153.0 425.0 153.0Z" fill-rule="nonzero"/><path stroke="#000000" stroke-width="0.0" stroke-linecap="butt" stroke-opacity="0.0" clip-path="url(#id_0)" d="M78.0 286.0L78.0 199.0L545.0 199.0C546.10455 199.0 547.0 199.89543 547.0 201.0L547.0 284.0C547.0 285.10458 546.10455 286.0 545.0 286.0Z" fill-rule="nonzero"/><path fill="#4285f4" clip-path="url(#id_0)" d="M78.0 286.0L78.0 199.0L545.0 199.0C546.10455 199.0 547.0 199.89543 547.0 201.0L547.0 284.0C547.0 285.10458 546.10455 286.0 545.0 286.0Z" fill-rule="nonzero"/><path stroke="#4285f4" stroke-width="3.0" stroke-linejoin="round" stroke-linecap="round" d="M403.73785 108.703125L404.55035 108.703125Q405.3316 108.6875 405.7691 108.296875Q406.2066 107.90625 406.2066 107.234375Q406.2066 105.734375 404.7066 105.734375Q404.00348 105.734375 403.5816 106.140625Q403.17535 106.546875 403.17535 107.203125L402.0816 107.203125Q402.0816 106.1875 402.81598 105.515625Q403.56598 104.84375 404.7066 104.84375Q405.90973 104.84375 406.59723 105.484375Q407.28473 106.125 407.28473 107.265625Q407.28473 107.828125 406.92535 108.34375Q406.56598 108.859375 405.94098 109.125Q406.6441 109.34375 407.0191 109.859375Q407.40973 110.375 407.40973 111.125Q407.40973 112.265625 406.65973 112.953125Q405.90973 113.625 404.7066 113.625Q403.5191 113.625 402.75348 112.96875Q402.00348 112.3125 402.00348 111.25L403.09723 111.25Q403.09723 111.921875 403.53473 112.328125Q403.97223 112.734375 404.72223 112.734375Q405.50348 112.734375 405.90973 112.328125Q406.3316 111.90625 406.3316 111.140625Q406.3316 110.40625 405.87848 110.015625Q405.42535 109.609375 404.55035 109.59375L403.73785 109.59375L403.73785 108.703125ZM413.73785 110.640625L414.92535 110.640625L414.92535 111.515625L413.73785 111.515625L413.73785 113.5L412.65973 113.5L412.65973 111.515625L408.7691 111.515625L408.7691 110.875L412.5816 104.96875L413.73785 104.96875L413.73785 110.640625ZM410.00348 110.640625L412.65973 110.640625L412.65973 106.453125L412.5191 106.6875L410.00348 110.640625ZM421.67535 105.578125L418.1441 113.5L417.00348 113.5L420.5191 105.859375L415.90973 105.859375L415.90973 104.96875L421.67535 104.96875L421.67535 105.578125Z" fill-rule="nonzero"/><path fill="#ffffff" d="M403.73785 108.703125L404.55035 108.703125Q405.3316 108.6875 405.7691 108.296875Q406.2066 107.90625 406.2066 107.234375Q406.2066 105.734375 404.7066 105.734375Q404.00348 105.734375 403.5816 106.140625Q403.17535 106.546875 403.17535 107.203125L402.0816 107.203125Q402.0816 106.1875 402.81598 105.515625Q403.56598 104.84375 404.7066 104.84375Q405.90973 104.84375 406.59723 105.484375Q407.28473 106.125 407.28473 107.265625Q407.28473 107.828125 406.92535 108.34375Q406.56598 108.859375 405.94098 109.125Q406.6441 109.34375 407.0191 109.859375Q407.40973 110.375 407.40973 111.125Q407.40973 112.265625 406.65973 112.953125Q405.90973 113.625 404.7066 113.625Q403.5191 113.625 402.75348 112.96875Q402.00348 112.3125 402.00348 111.25L403.09723 111.25Q403.09723 111.921875 403.53473 112.328125Q403.97223 112.734375 404.72223 112.734375Q405.50348 112.734375 405.90973 112.328125Q406.3316 111.90625 406.3316 111.140625Q406.3316 110.40625 405.87848 110.015625Q405.42535 109.609375 404.55035 109.59375L403.73785 109.59375L403.73785 108.703125ZM413.73785 110.640625L414.92535 110.640625L414.92535 111.515625L413.73785 111.515625L413.73785 113.5L412.65973 113.5L412.65973 111.515625L408.7691 111.515625L408.7691 110.875L412.5816 104.96875L413.73785 104.96875L413.73785 110.640625ZM410.00348 110.640625L412.65973 110.640625L412.65973 106.453125L412.5191 106.6875L410.00348 110.640625ZM421.67535 105.578125L418.1441 113.5L417.00348 113.5L420.5191 105.859375L415.90973 105.859375L415.90973 104.96875L421.67535 104.96875L421.67535 105.578125Z" fill-rule="nonzero"/><path stroke="#4285f4" stroke-width="3.0" stroke-linejoin="round" stroke-linecap="round" d="M526.6661 243.64062L527.8536 243.64062L527.8536 244.51562L526.6661 244.51562L526.6661 246.5L525.58795 246.5L525.58795 244.51562L521.6973 244.51562L521.6973 243.875L525.5098 237.96875L526.6661 237.96875L526.6661 243.64062ZM522.9317 243.64062L525.58795 243.64062L525.58795 239.45312L525.4473 239.6875L522.9317 243.64062ZM533.3536 237.96875L533.3536 238.875L533.15045 238.875Q531.8848 238.90625 531.1348 239.64062Q530.3848 240.35938 530.2598 241.67188Q530.9473 240.90625 532.1036 240.90625Q533.21295 240.90625 533.8848 241.6875Q534.5567 242.46875 534.5567 243.71875Q534.5567 245.03125 533.83795 245.82812Q533.1192 246.625 531.90045 246.625Q530.6817 246.625 529.9161 245.6875Q529.1661 244.73438 529.1661 243.25L529.1661 242.84375Q529.1661 240.48438 530.1661 239.23438Q531.1661 237.98438 533.15045 237.96875L533.3536 237.96875ZM531.9317 241.8125Q531.3692 241.8125 530.90045 242.14062Q530.4317 242.46875 530.2442 242.98438L530.2442 243.375Q530.2442 244.4375 530.71295 245.07812Q531.1973 245.71875 531.90045 245.71875Q532.6348 245.71875 533.0567 245.1875Q533.4786 244.64062 533.4786 243.76562Q533.4786 242.89062 533.0567 242.35938Q532.6348 241.8125 531.9317 241.8125ZM540.3536 237.96875L540.3536 238.875L540.15045 238.875Q538.8848 238.90625 538.1348 239.64062Q537.3848 240.35938 537.2598 241.67188Q537.9473 240.90625 539.1036 240.90625Q540.21295 240.90625 540.8848 241.6875Q541.5567 242.46875 541.5567 243.71875Q541.5567 245.03125 540.83795 245.82812Q540.1192 246.625 538.90045 246.625Q537.6817 246.625 536.9161 245.6875Q536.1661 244.73438 536.1661 243.25L536.1661 242.84375Q536.1661 240.48438 537.1661 239.23438Q538.1661 237.98438 540.15045 237.96875L540.3536 237.96875ZM538.9317 241.8125Q538.3692 241.8125 537.90045 242.14062Q537.4317 242.46875 537.2442 242.98438L537.2442 243.375Q537.2442 244.4375 537.71295 245.07812Q538.1973 245.71875 538.90045 245.71875Q539.6348 245.71875 540.0567 245.1875Q540.4786 244.64062 540.4786 243.76562Q540.4786 242.89062 540.0567 242.35938Q539.6348 241.8125 538.9317 241.8125Z" fill-rule="nonzero"/><path fill="#ffffff" d="M526.6661 243.64062L527.8536 243.64062L527.8536 244.51562L526.6661 244.51562L526.6661 246.5L525.58795 246.5L525.58795 244.51562L521.6973 244.51562L521.6973 243.875L525.5098 237.96875L526.6661 237.96875L526.6661 243.64062ZM522.9317 243.64062L525.58795 243.64062L525.58795 239.45312L525.4473 239.6875L522.9317 243.64062ZM533.3536 237.96875L533.3536 238.875L533.15045 238.875Q531.8848 238.90625 531.1348 239.64062Q530.3848 240.35938 530.2598 241.67188Q530.9473 240.90625 532.1036 240.90625Q533.21295 240.90625 533.8848 241.6875Q534.5567 242.46875 534.5567 243.71875Q534.5567 245.03125 533.83795 245.82812Q533.1192 246.625 531.90045 246.625Q530.6817 246.625 529.9161 245.6875Q529.1661 244.73438 529.1661 243.25L529.1661 242.84375Q529.1661 240.48438 530.1661 239.23438Q531.1661 237.98438 533.15045 237.96875L533.3536 237.96875ZM531.9317 241.8125Q531.3692 241.8125 530.90045 242.14062Q530.4317 242.46875 530.2442 242.98438L530.2442 243.375Q530.2442 244.4375 530.71295 245.07812Q531.1973 245.71875 531.90045 245.71875Q532.6348 245.71875 533.0567 245.1875Q533.4786 244.64062 533.4786 243.76562Q533.4786 242.89062 533.0567 242.35938Q532.6348 241.8125 531.9317 241.8125ZM540.3536 237.96875L540.3536 238.875L540.15045 238.875Q538.8848 238.90625 538.1348 239.64062Q537.3848 240.35938 537.2598 241.67188Q537.9473 240.90625 539.1036 240.90625Q540.21295 240.90625 540.8848 241.6875Q541.5567 242.46875 541.5567 243.71875Q541.5567 245.03125 540.83795 245.82812Q540.1192 246.625 538.90045 246.625Q537.6817 246.625 536.9161 245.6875Q536.1661 244.73438 536.1661 243.25L536.1661 242.84375Q536.1661 240.48438 537.1661 239.23438Q538.1661 237.98438 540.15045 237.96875L540.3536 237.96875ZM538.9317 241.8125Q538.3692 241.8125 537.90045 242.14062Q537.4317 242.46875 537.2442 242.98438L537.2442 243.375Q537.2442 244.4375 537.71295 245.07812Q538.1973 245.71875 538.90045 245.71875Q539.6348 245.71875 540.0567 245.1875Q540.4786 244.64062 540.4786 243.76562Q540.4786 242.89062 540.0567 242.35938Q539.6348 241.8125 538.9317 241.8125Z" fill-rule="nonzero"/><path fill="#000000" d="M19.33125 105.35339L19.33125 104.11902L20.39375 104.11902L20.39375 105.35339L19.33125 105.35339ZM18.003124 115.13464L18.190624 114.22839Q18.51875 114.30652 18.690624 114.30652Q19.01875 114.30652 19.175 114.08777Q19.33125 113.88464 19.33125 113.02527L19.33125 106.49402L20.39375 106.49402L20.39375 113.05652Q20.39375 114.19714 20.096874 114.65027Q19.70625 115.24402 18.83125 115.24402Q18.39375 115.24402 18.003124 115.13464ZM26.596874 110.71277L27.690624 110.83777Q27.440624 111.79089 26.7375 112.32214Q26.034374 112.85339 24.95625 112.85339Q23.596874 112.85339 22.784374 112.00964Q21.9875 111.16589 21.9875 109.65027Q21.9875 108.08777 22.8 107.22839Q23.6125 106.35339 24.89375 106.35339Q26.14375 106.35339 26.925 107.19714Q27.721874 108.04089 27.721874 109.58777Q27.721874 109.68152 27.721874 109.86902L23.08125 109.86902Q23.14375 110.90027 23.659374 111.44714Q24.175 111.97839 24.95625 111.97839Q25.534374 111.97839 25.940624 111.68152Q26.3625 111.36902 26.596874 110.71277ZM23.14375 109.00964L26.6125 109.00964Q26.55 108.21277 26.221874 107.82214Q25.70625 107.21277 24.909374 107.21277Q24.175 107.21277 23.675 107.69714Q23.190624 108.18152 23.14375 109.00964ZM31.64375 111.77527L31.8 112.69714Q31.346874 112.79089 31.003124 112.79089Q30.425 112.79089 30.1125 112.61902Q29.8 112.43152 29.659374 112.13464Q29.534374 111.83777 29.534374 110.88464L29.534374 107.30652L28.76875 107.30652L28.76875 106.49402L29.534374 106.49402L29.534374 104.94714L30.58125 104.32214L30.58125 106.49402L31.64375 106.49402L31.64375 107.30652L30.58125 107.30652L30.58125 110.94714Q30.58125 111.40027 30.628124 111.52527Q30.690624 111.65027 30.815624 111.72839Q30.940624 111.80652 31.175 111.80652Q31.3625 111.80652 31.64375 111.77527ZM32.346874 115.10339L32.346874 106.49402L33.3 106.49402L33.3 107.29089Q33.64375 106.82214 34.065624 106.58777Q34.503124 106.35339 35.1125 106.35339Q35.909374 106.35339 36.51875 106.75964Q37.128124 107.16589 37.425 107.91589Q37.7375 108.66589 37.7375 109.55652Q37.7375 110.50964 37.39375 111.27527Q37.065624 112.04089 36.409374 112.44714Q35.753124 112.85339 35.034374 112.85339Q34.503124 112.85339 34.08125 112.63464Q33.659374 112.40027 33.39375 112.07214L33.39375 115.10339L32.346874 115.10339ZM33.3 109.63464Q33.3 110.83777 33.784374 111.41589Q34.26875 111.97839 34.95625 111.97839Q35.659374 111.97839 36.159374 111.38464Q36.659374 110.79089 36.659374 109.54089Q36.659374 108.35339 36.175 107.77527Q35.690624 107.18152 35.003124 107.18152Q34.33125 107.18152 33.815624 107.80652Q33.3 108.43152 33.3 109.63464ZM43.409374 111.94714Q42.815624 112.44714 42.26875 112.65027Q41.7375 112.85339 41.1125 112.85339Q40.08125 112.85339 39.534374 112.35339Q38.9875 111.85339 38.9875 111.07214Q38.9875 110.61902 39.190624 110.24402Q39.39375 109.85339 39.7375 109.63464Q40.08125 109.40027 40.503124 109.29089Q40.8 109.19714 41.440624 109.11902Q42.70625 108.97839 43.315624 108.75964Q43.315624 108.54089 43.315624 108.49402Q43.315624 107.83777 43.01875 107.57214Q42.6125 107.22839 41.815624 107.22839Q41.08125 107.22839 40.721874 107.49402Q40.3625 107.74402 40.190624 108.40027L39.159374 108.25964Q39.3 107.60339 39.628124 107.19714Q39.95625 106.79089 40.565624 106.57214Q41.175 106.35339 41.971874 106.35339Q42.76875 106.35339 43.26875 106.54089Q43.76875 106.72839 44.003124 107.00964Q44.2375 107.29089 44.33125 107.72839Q44.378124 107.99402 44.378124 108.69714L44.378124 110.10339Q44.378124 111.57214 44.440624 111.96277Q44.51875 112.35339 44.721874 112.71277L43.6125 112.71277Q43.45625 112.38464 43.409374 111.94714ZM43.315624 109.58777Q42.7375 109.82214 41.596874 109.99402Q40.940624 110.08777 40.675 110.21277Q40.409374 110.32214 40.253124 110.54089Q40.1125 110.75964 40.1125 111.04089Q40.1125 111.46277 40.425 111.74402Q40.753124 112.02527 41.3625 112.02527Q41.971874 112.02527 42.440624 111.75964Q42.925 111.49402 43.14375 111.02527Q43.315624 110.66589 43.315624 109.97839L43.315624 109.58777ZM50.409374 110.43152L51.440624 110.57214Q51.26875 111.63464 50.565624 112.24402Q49.8625 112.85339 48.846874 112.85339Q47.565624 112.85339 46.784374 112.02527Q46.01875 111.18152 46.01875 109.61902Q46.01875 108.61902 46.346874 107.86902Q46.690624 107.10339 47.3625 106.72839Q48.05 106.35339 48.8625 106.35339Q49.8625 106.35339 50.503124 106.86902Q51.159374 107.36902 51.346874 108.32214L50.315624 108.47839Q50.175 107.85339 49.8 107.54089Q49.425 107.21277 48.89375 107.21277Q48.096874 107.21277 47.596874 107.79089Q47.096874 108.35339 47.096874 109.58777Q47.096874 110.85339 47.58125 111.41589Q48.065624 111.97839 48.83125 111.97839Q49.45625 111.97839 49.8625 111.60339Q50.284374 111.22839 50.409374 110.43152ZM52.346874 112.71277L52.346874 104.11902L53.409374 104.11902L53.409374 109.02527L55.89375 106.49402L57.26875 106.49402L54.878124 108.79089L57.503124 112.71277L56.20625 112.71277L54.14375 109.52527L53.409374 110.24402L53.409374 112.71277L52.346874 112.71277ZM60.55 111.32214L60.55 108.96277L58.221874 108.96277L58.221874 107.97839L60.55 107.97839L60.55 105.65027L61.55 105.65027L61.55 107.97839L63.89375 107.97839L63.89375 108.96277L61.55 108.96277L61.55 111.32214L60.55 111.32214ZM67.55 111.32214L67.55 108.96277L65.22188 108.96277L65.22188 107.97839L67.55 107.97839L67.55 105.65027L68.55 105.65027L68.55 107.97839L70.89375 107.97839L70.89375 108.96277L68.55 108.96277L68.55 111.32214L67.55 111.32214Z" fill-rule="nonzero"/><path fill="#000000" d="M36.596874 244.28723L37.690624 244.41223Q37.440624 245.36536 36.7375 245.8966Q36.034374 246.42786 34.95625 246.42786Q33.596874 246.42786 32.784374 245.5841Q31.9875 244.74036 31.9875 243.22473Q31.9875 241.66223 32.8 240.80286Q33.6125 239.92786 34.89375 239.92786Q36.14375 239.92786 36.925 240.7716Q37.721874 241.61536 37.721874 243.16223Q37.721874 243.25598 37.721874 243.44348L33.08125 243.44348Q33.14375 244.47473 33.659374 245.0216Q34.175 245.55286 34.95625 245.55286Q35.534374 245.55286 35.940624 245.25598Q36.3625 244.94348 36.596874 244.28723ZM33.14375 242.5841L36.6125 242.5841Q36.55 241.78723 36.221874 241.3966Q35.70625 240.78723 34.909374 240.78723Q34.175 240.78723 33.675 241.2716Q33.190624 241.75598 33.14375 242.5841ZM38.925 244.42786L39.95625 244.2716Q40.05 244.8966 40.440624 245.22473Q40.846874 245.55286 41.58125 245.55286Q42.3 245.55286 42.64375 245.2716Q43.003124 244.97473 43.003124 244.56848Q43.003124 244.2091 42.690624 244.00598Q42.471874 243.86536 41.6125 243.6466Q40.45625 243.34973 40.003124 243.1466Q39.565624 242.92786 39.33125 242.55286Q39.096874 242.17786 39.096874 241.7091Q39.096874 241.30286 39.284374 240.94348Q39.471874 240.5841 39.8 240.34973Q40.05 240.17786 40.471874 240.05286Q40.89375 239.92786 41.39375 239.92786Q42.1125 239.92786 42.659374 240.1466Q43.221874 240.34973 43.4875 240.7091Q43.753124 241.06848 43.846874 241.66223L42.815624 241.80286Q42.753124 241.3341 42.409374 241.06848Q42.08125 240.78723 41.45625 240.78723Q40.7375 240.78723 40.425 241.03723Q40.1125 241.2716 40.1125 241.59973Q40.1125 241.80286 40.2375 241.9591Q40.378124 242.13098 40.64375 242.24036Q40.8 242.30286 41.58125 242.50598Q42.70625 242.81848 43.14375 243.00598Q43.58125 243.19348 43.83125 243.55286Q44.08125 243.91223 44.08125 244.4591Q44.08125 244.99036 43.76875 245.4591Q43.471874 245.91223 42.89375 246.17786Q42.315624 246.42786 41.58125 246.42786Q40.3625 246.42786 39.721874 245.92786Q39.096874 245.41223 38.925 244.42786ZM46.315624 246.28723L45.33125 246.28723L45.33125 237.69348L46.39375 237.69348L46.39375 240.75598Q47.065624 239.92786 48.096874 239.92786Q48.675 239.92786 49.175 240.16223Q49.690624 240.38098 50.01875 240.80286Q50.3625 241.22473 50.55 241.81848Q50.7375 242.41223 50.7375 243.0841Q50.7375 244.67786 49.940624 245.55286Q49.14375 246.42786 48.05 246.42786Q46.940624 246.42786 46.315624 245.50598L46.315624 246.28723ZM46.3 243.13098Q46.3 244.24036 46.6125 244.74036Q47.1125 245.55286 47.95625 245.55286Q48.64375 245.55286 49.14375 244.9591Q49.659374 244.36536 49.659374 243.16223Q49.659374 241.94348 49.175 241.36536Q48.690624 240.78723 48.003124 240.78723Q47.315624 240.78723 46.8 241.3966Q46.3 241.99036 46.3 243.13098ZM56.425 246.28723L56.425 245.36536Q55.690624 246.42786 54.440624 246.42786Q53.89375 246.42786 53.409374 246.22473Q52.940624 246.00598 52.70625 245.69348Q52.471874 245.36536 52.378124 244.8966Q52.315624 244.59973 52.315624 243.91223L52.315624 240.06848L53.378124 240.06848L53.378124 243.5216Q53.378124 244.3341 53.440624 244.63098Q53.534374 245.03723 53.846874 245.28723Q54.175 245.5216 54.659374 245.5216Q55.128124 245.5216 55.534374 245.28723Q55.95625 245.03723 56.128124 244.61536Q56.315624 244.19348 56.315624 243.3966L56.315624 240.06848L57.3625 240.06848L57.3625 246.28723L56.425 246.28723ZM59.346874 238.91223L59.346874 237.69348L60.409374 237.69348L60.409374 238.91223L59.346874 238.91223ZM59.346874 246.28723L59.346874 240.06848L60.409374 240.06848L60.409374 246.28723L59.346874 246.28723ZM62.315624 246.28723L62.315624 237.69348L63.378124 237.69348L63.378124 246.28723L62.315624 246.28723ZM69.37813 246.28723L69.37813 245.50598Q68.78438 246.42786 67.64375 246.42786Q66.89375 246.42786 66.26875 246.0216Q65.64375 245.59973 65.3 244.86536Q64.95625 244.13098 64.95625 243.17786Q64.95625 242.25598 65.26875 241.49036Q65.58125 240.72473 66.20625 240.3341Q66.83125 239.92786 67.59688 239.92786Q68.15938 239.92786 68.59688 240.16223Q69.03438 240.3966 69.31563 240.7716L69.31563 237.69348L70.3625 237.69348L70.3625 246.28723L69.37813 246.28723ZM66.05 243.17786Q66.05 244.38098 66.55 244.97473Q67.05 245.55286 67.7375 245.55286Q68.425 245.55286 68.90938 244.99036Q69.39375 244.42786 69.39375 243.2716Q69.39375 241.99036 68.89375 241.3966Q68.40938 240.80286 67.69063 240.80286Q66.9875 240.80286 66.51875 241.38098Q66.05 241.94348 66.05 243.17786Z" fill-rule="nonzero"/><path fill="#000000" d="M74.55 345.21564Q74.55 343.6844 74.8625 342.7625Q75.175 341.825 75.78438 341.325Q76.40938 340.825 77.34688 340.825Q78.03438 340.825 78.55 341.10626Q79.08125 341.3875 79.425 341.91876Q79.76875 342.4344 79.95625 343.1844Q80.14375 343.9344 80.14375 345.21564Q80.14375 346.73126 79.83125 347.65314Q79.53438 348.575 78.90938 349.09064Q78.3 349.59064 77.34688 349.59064Q76.1125 349.59064 75.39375 348.7Q74.55 347.6375 74.55 345.21564ZM75.62813 345.21564Q75.62813 347.325 76.12813 348.02814Q76.62813 348.73126 77.34688 348.73126Q78.08125 348.73126 78.56563 348.02814Q79.06563 347.325 79.06563 345.21564Q79.06563 343.09064 78.56563 342.40314Q78.08125 341.7 77.33125 341.7Q76.6125 341.7 76.175 342.3094Q75.62813 343.09064 75.62813 345.21564Z" fill-rule="nonzero"/><path fill="#000000" d="M172.29875 349.45L171.25188 349.45L171.25188 342.73126Q170.86125 343.09064 170.23625 343.46564Q169.62688 343.825 169.1425 343.9969L169.1425 342.98126Q170.0175 342.5594 170.67375 341.98126Q171.34563 341.3875 171.62688 340.825L172.29875 340.825L172.29875 349.45ZM175.33 345.21564Q175.33 343.6844 175.6425 342.7625Q175.955 341.825 176.56438 341.325Q177.18938 340.825 178.12688 340.825Q178.81438 340.825 179.33 341.10626Q179.86125 341.3875 180.205 341.91876Q180.54875 342.4344 180.73625 343.1844Q180.92375 343.9344 180.92375 345.21564Q180.92375 346.73126 180.61125 347.65314Q180.31438 348.575 179.68938 349.09064Q179.08 349.59064 178.12688 349.59064Q176.8925 349.59064 176.17375 348.7Q175.33 347.6375 175.33 345.21564ZM176.40813 345.21564Q176.40813 347.325 176.90813 348.02814Q177.40813 348.73126 178.12688 348.73126Q178.86125 348.73126 179.34563 348.02814Q179.84563 347.325 179.84563 345.21564Q179.84563 343.09064 179.34563 342.40314Q178.86125 341.7 178.11125 341.7Q177.3925 341.7 176.955 342.3094Q176.40813 343.09064 176.40813 345.21564ZM182.33 345.21564Q182.33 343.6844 182.6425 342.7625Q182.955 341.825 183.56438 341.325Q184.18938 340.825 185.12688 340.825Q185.81438 340.825 186.33 341.10626Q186.86125 341.3875 187.205 341.91876Q187.54875 342.4344 187.73625 343.1844Q187.92375 343.9344 187.92375 345.21564Q187.92375 346.73126 187.61125 347.65314Q187.31438 348.575 186.68938 349.09064Q186.08 349.59064 185.12688 349.59064Q183.8925 349.59064 183.17375 348.7Q182.33 347.6375 182.33 345.21564ZM183.40813 345.21564Q183.40813 347.325 183.90813 348.02814Q184.40813 348.73126 185.12688 348.73126Q185.86125 348.73126 186.34563 348.02814Q186.84563 347.325 186.84563 345.21564Q186.84563 343.09064 186.34563 342.40314Q185.86125 341.7 185.11125 341.7Q184.3925 341.7 183.955 342.3094Q183.40813 343.09064 183.40813 345.21564Z" fill-rule="nonzero"/><path fill="#000000" d="M274.65686 348.4344L274.65686 349.45L268.96936 349.45Q268.96936 349.075 269.09436 348.71564Q269.3131 348.1375 269.78186 347.575Q270.26624 347.0125 271.1725 346.27814Q272.57874 345.1219 273.0631 344.45Q273.5631 343.77814 273.5631 343.1844Q273.5631 342.5594 273.11 342.1375Q272.65686 341.7 271.9381 341.7Q271.1725 341.7 270.71936 342.15314Q270.26624 342.60626 270.2506 343.41876L269.1725 343.3094Q269.28186 342.09064 270.0006 341.46564Q270.735 340.825 271.96936 340.825Q273.20374 340.825 273.9225 341.5125Q274.64124 342.2 274.64124 343.21564Q274.64124 343.73126 274.4225 344.23126Q274.21936 344.71564 273.71936 345.27814Q273.235 345.825 272.11 346.77814Q271.15686 347.575 270.8756 347.8719Q270.61 348.15314 270.4381 348.4344L274.65686 348.4344ZM276.11 345.21564Q276.11 343.6844 276.4225 342.7625Q276.735 341.825 277.34436 341.325Q277.96936 340.825 278.90686 340.825Q279.59436 340.825 280.11 341.10626Q280.64124 341.3875 280.985 341.91876Q281.32874 342.4344 281.51624 343.1844Q281.70374 343.9344 281.70374 345.21564Q281.70374 346.73126 281.39124 347.65314Q281.09436 348.575 280.46936 349.09064Q279.86 349.59064 278.90686 349.59064Q277.6725 349.59064 276.95374 348.7Q276.11 347.6375 276.11 345.21564ZM277.1881 345.21564Q277.1881 347.325 277.6881 348.02814Q278.1881 348.73126 278.90686 348.73126Q279.64124 348.73126 280.1256 348.02814Q280.6256 347.325 280.6256 345.21564Q280.6256 343.09064 280.1256 342.40314Q279.64124 341.7 278.89124 341.7Q278.1725 341.7 277.735 342.3094Q277.1881 343.09064 277.1881 345.21564ZM283.11 345.21564Q283.11 343.6844 283.4225 342.7625Q283.735 341.825 284.34436 341.325Q284.96936 340.825 285.90686 340.825Q286.59436 340.825 287.11 341.10626Q287.64124 341.3875 287.985 341.91876Q288.32874 342.4344 288.51624 343.1844Q288.70374 343.9344 288.70374 345.21564Q288.70374 346.73126 288.39124 347.65314Q288.09436 348.575 287.46936 349.09064Q286.86 349.59064 285.90686 349.59064Q284.6725 349.59064 283.95374 348.7Q283.11 347.6375 283.11 345.21564ZM284.1881 345.21564Q284.1881 347.325 284.6881 348.02814Q285.1881 348.73126 285.90686 348.73126Q286.64124 348.73126 287.1256 348.02814Q287.6256 347.325 287.6256 345.21564Q287.6256 343.09064 287.1256 342.40314Q286.64124 341.7 285.89124 341.7Q285.1725 341.7 284.735 342.3094Q284.1881 343.09064 284.1881 345.21564Z" fill-rule="nonzero"/><path fill="#000000" d="M369.89 347.1844L370.9525 347.04376Q371.1244 347.9344 371.5619 348.34064Q371.9994 348.73126 372.6244 348.73126Q373.3744 348.73126 373.89 348.21564Q374.40564 347.7 374.40564 346.9344Q374.40564 346.21564 373.92126 345.7469Q373.4525 345.2625 372.71814 345.2625Q372.42126 345.2625 371.96814 345.3875L372.09314 344.45Q372.2025 344.46564 372.265 344.46564Q372.9369 344.46564 373.46814 344.1219Q374.015 343.7625 374.015 343.02814Q374.015 342.45 373.6244 342.075Q373.23376 341.6844 372.60876 341.6844Q371.9994 341.6844 371.5775 342.075Q371.17126 342.46564 371.0619 343.23126L369.9994 343.04376Q370.1869 341.9969 370.8744 341.41876Q371.5619 340.825 372.5775 340.825Q373.28064 340.825 373.8744 341.1375Q374.46814 341.4344 374.78064 341.95Q375.09314 342.46564 375.09314 343.0594Q375.09314 343.60626 374.79626 344.075Q374.4994 344.52814 373.92126 344.79376Q374.67126 344.96564 375.09314 345.52814Q375.515 346.075 375.515 346.91876Q375.515 348.04376 374.6869 348.825Q373.8744 349.60626 372.6244 349.60626Q371.4994 349.60626 370.7494 348.9344Q369.9994 348.2469 369.89 347.1844ZM376.89 345.21564Q376.89 343.6844 377.2025 342.7625Q377.515 341.825 378.1244 341.325Q378.7494 340.825 379.6869 340.825Q380.3744 340.825 380.89 341.10626Q381.42126 341.3875 381.765 341.91876Q382.10876 342.4344 382.29626 343.1844Q382.48376 343.9344 382.48376 345.21564Q382.48376 346.73126 382.17126 347.65314Q381.8744 348.575 381.2494 349.09064Q380.64 349.59064 379.6869 349.59064Q378.4525 349.59064 377.73376 348.7Q376.89 347.6375 376.89 345.21564ZM377.96814 345.21564Q377.96814 347.325 378.46814 348.02814Q378.96814 348.73126 379.6869 348.73126Q380.42126 348.73126 380.90564 348.02814Q381.40564 347.325 381.40564 345.21564Q381.40564 343.09064 380.90564 342.40314Q380.42126 341.7 379.67126 341.7Q378.9525 341.7 378.515 342.3094Q377.96814 343.09064 377.96814 345.21564ZM383.89 345.21564Q383.89 343.6844 384.2025 342.7625Q384.515 341.825 385.1244 341.325Q385.7494 340.825 386.6869 340.825Q387.3744 340.825 387.89 341.10626Q388.42126 341.3875 388.765 341.91876Q389.10876 342.4344 389.29626 343.1844Q389.48376 343.9344 389.48376 345.21564Q389.48376 346.73126 389.17126 347.65314Q388.8744 348.575 388.2494 349.09064Q387.64 349.59064 386.6869 349.59064Q385.4525 349.59064 384.73376 348.7Q383.89 347.6375 383.89 345.21564ZM384.96814 345.21564Q384.96814 347.325 385.46814 348.02814Q385.96814 348.73126 386.6869 348.73126Q387.42126 348.73126 387.90564 348.02814Q388.40564 347.325 388.40564 345.21564Q388.40564 343.09064 387.90564 342.40314Q387.42126 341.7 386.67126 341.7Q385.9525 341.7 385.515 342.3094Q384.96814 343.09064 384.96814 345.21564Z" fill-rule="nonzero"/><path fill="#000000" d="M474.045 349.45L474.045 347.3875L470.32626 347.3875L470.32626 346.41876L474.24814 340.85626L475.1075 340.85626L475.1075 346.41876L476.26376 346.41876L476.26376 347.3875L475.1075 347.3875L475.1075 349.45L474.045 349.45ZM474.045 346.41876L474.045 342.5594L471.3575 346.41876L474.045 346.41876ZM477.67 345.21564Q477.67 343.6844 477.9825 342.7625Q478.295 341.825 478.9044 341.325Q479.5294 340.825 480.4669 340.825Q481.1544 340.825 481.67 341.10626Q482.20126 341.3875 482.545 341.91876Q482.88876 342.4344 483.07626 343.1844Q483.26376 343.9344 483.26376 345.21564Q483.26376 346.73126 482.95126 347.65314Q482.6544 348.575 482.0294 349.09064Q481.42 349.59064 480.4669 349.59064Q479.2325 349.59064 478.51376 348.7Q477.67 347.6375 477.67 345.21564ZM478.74814 345.21564Q478.74814 347.325 479.24814 348.02814Q479.74814 348.73126 480.4669 348.73126Q481.20126 348.73126 481.68564 348.02814Q482.18564 347.325 482.18564 345.21564Q482.18564 343.09064 481.68564 342.40314Q481.20126 341.7 480.45126 341.7Q479.7325 341.7 479.295 342.3094Q478.74814 343.09064 478.74814 345.21564ZM484.67 345.21564Q484.67 343.6844 484.9825 342.7625Q485.295 341.825 485.9044 341.325Q486.5294 340.825 487.4669 340.825Q488.1544 340.825 488.67 341.10626Q489.20126 341.3875 489.545 341.91876Q489.88876 342.4344 490.07626 343.1844Q490.26376 343.9344 490.26376 345.21564Q490.26376 346.73126 489.95126 347.65314Q489.6544 348.575 489.0294 349.09064Q488.42 349.59064 487.4669 349.59064Q486.2325 349.59064 485.51376 348.7Q484.67 347.6375 484.67 345.21564ZM485.74814 345.21564Q485.74814 347.325 486.24814 348.02814Q486.74814 348.73126 487.4669 348.73126Q488.20126 348.73126 488.68564 348.02814Q489.18564 347.325 489.18564 345.21564Q489.18564 343.09064 488.68564 342.40314Q488.20126 341.7 487.45126 341.7Q486.7325 341.7 486.295 342.3094Q485.74814 343.09064 485.74814 345.21564Z" fill-rule="nonzero"/><path fill="#000000" d="M571.45 347.2L572.5594 347.10626Q572.6844 347.91876 573.1219 348.325Q573.575 348.73126 574.21564 348.73126Q574.96564 348.73126 575.4969 348.15314Q576.02814 347.575 576.02814 346.6375Q576.02814 345.73126 575.5125 345.21564Q575.0125 344.6844 574.1844 344.6844Q573.6844 344.6844 573.2625 344.91876Q572.85626 345.15314 572.6219 345.5125L571.6375 345.3875L572.46564 340.98126L576.7469 340.98126L576.7469 341.98126L573.3094 341.98126L572.85626 344.29376Q573.6219 343.7469 574.46564 343.7469Q575.59064 343.7469 576.35626 344.52814Q577.1375 345.3094 577.1375 346.54376Q577.1375 347.7 576.46564 348.5594Q575.6375 349.59064 574.21564 349.59064Q573.04376 349.59064 572.29376 348.9344Q571.5594 348.27814 571.45 347.2ZM578.45 345.21564Q578.45 343.6844 578.7625 342.7625Q579.075 341.825 579.6844 341.325Q580.3094 340.825 581.2469 340.825Q581.9344 340.825 582.45 341.10626Q582.98126 341.3875 583.325 341.91876Q583.66876 342.4344 583.85626 343.1844Q584.04376 343.9344 584.04376 345.21564Q584.04376 346.73126 583.73126 347.65314Q583.4344 348.575 582.8094 349.09064Q582.2 349.59064 581.2469 349.59064Q580.0125 349.59064 579.29376 348.7Q578.45 347.6375 578.45 345.21564ZM579.52814 345.21564Q579.52814 347.325 580.02814 348.02814Q580.52814 348.73126 581.2469 348.73126Q581.98126 348.73126 582.46564 348.02814Q582.96564 347.325 582.96564 345.21564Q582.96564 343.09064 582.46564 342.40314Q581.98126 341.7 581.23126 341.7Q580.5125 341.7 580.075 342.3094Q579.52814 343.09064 579.52814 345.21564ZM585.45 345.21564Q585.45 343.6844 585.7625 342.7625Q586.075 341.825 586.6844 341.325Q587.3094 340.825 588.2469 340.825Q588.9344 340.825 589.45 341.10626Q589.98126 341.3875 590.325 341.91876Q590.66876 342.4344 590.85626 343.1844Q591.04376 343.9344 591.04376 345.21564Q591.04376 346.73126 590.73126 347.65314Q590.4344 348.575 589.8094 349.09064Q589.2 349.59064 588.2469 349.59064Q587.0125 349.59064 586.29376 348.7Q585.45 347.6375 585.45 345.21564ZM586.52814 345.21564Q586.52814 347.325 587.02814 348.02814Q587.52814 348.73126 588.2469 348.73126Q588.98126 348.73126 589.46564 348.02814Q589.96564 347.325 589.96564 345.21564Q589.96564 343.09064 589.46564 342.40314Q588.98126 341.7 588.23126 341.7Q587.5125 341.7 587.075 342.3094Q586.52814 343.09064 586.52814 345.21564Z" fill-rule="nonzero"/></svg>